<svg width="50" height="50" viewBox="0 0 50 50" fill="none" xmlns="http://www.w3.org/2000/svg">
<path d="M1 4.89189C1 2.74246 3.2231 1 5.96552 1H34.1035L49 20V45.1081C49 47.2576 46.7769 49 44.0345 49H5.96552C3.2231 49 1 47.2576 1 45.1081V4.89189Z" fill="white" stroke="#163A6B" stroke-width="2" stroke-linejoin="round"/>
<path d="M34 1V21H49" fill="#D9ECFF"/>
<path d="M34 1V21H49" stroke="#163A6B" stroke-width="2" stroke-linejoin="round"/>
<path d="M11 40H37" stroke="#163A6B" stroke-width="2" stroke-linecap="round"/>
<path d="M40 36H36C34.8954 36 34 36.8954 34 38V42C34 43.1046 34.8954 44 36 44H40C41.1046 44 42 43.1046 42 42V38C42 36.8954 41.1046 36 40 36Z" fill="#B59CFF"/>
<path d="M29.1823 38.5255L25.7882 35.1314C25.1634 34.5065 24.1503 34.5065 23.5255 35.1314L20.1314 38.5255C19.5065 39.1503 19.5065 40.1634 20.1314 40.7882L23.5255 44.1823C24.1503 44.8072 25.1634 44.8072 25.7882 44.1823L29.1823 40.7882C29.8072 40.1634 29.8072 39.1503 29.1823 38.5255Z" fill="#FFC857"/>
<path d="M13 36H9C7.89543 36 7 36.8954 7 38V42C7 43.1046 7.89543 44 9 44H13C14.1046 44 15 43.1046 15 42V38C15 36.8954 14.1046 36 13 36Z" fill="#52D6A3"/>
<path d="M11.5455 4H10.4545C9.09894 4 8 5.1028 8 6.46318L8 22.0633C8 23.4237 9.09894 24.5265 10.4545 24.5265H11.5455C12.9011 24.5265 14 23.4237 14 22.0633V6.46318C14 5.1028 12.9011 4 11.5455 4Z" fill="white" stroke="#163A6B" stroke-width="2"/>
<path d="M12.6364 4H9.36364C8.61052 4 8 4.61267 8 5.36843V6.46318C8 7.21894 8.61052 7.83161 9.36364 7.83161H12.6364C13.3895 7.83161 14 7.21894 14 6.46318V5.36843C14 4.61267 13.3895 4 12.6364 4Z" fill="#5B8CFF"/>
<path d="M8 24.5264H14L11 30.0001L8 24.5264Z" fill="white" stroke="#163A6B" stroke-width="2" stroke-linejoin="round"/>
</svg>
